<svg xmlns="http://www.w3.org/2000/svg" width="991.8" height="345.249" viewBox="0 0 991.8 345.249">
  <g id="Group_329" data-name="Group 329" transform="translate(-4.41 -715)">
    <path id="Path_354" data-name="Path 354" d="M841.89,94.594l-.176.02q-6.223,1.105-12.4,2.139V91.859a9.837,9.837,0,0,0,5.523-2.733c2-2.011,3.222-5.1,3.219-9.324-.018-8.665-4.851-17.162-10.239-21.789l-.488-.417-.488.417c-5.386,4.627-10.221,13.124-10.238,21.789,0,4.223,1.221,7.313,3.221,9.324a9.833,9.833,0,0,0,5.521,2.734V97.4q-6.87,1.129-13.686,2.173V63.445h3.186L811.49,45.679H786.562V37.934H777.11v7.743l-4.434,0-.153.814-3.2,16.952h3.18v41.514q-5.971.72-11.918,1.373V68.445h3.187l-3.36-17.766H721.6l-.155.814-3.2,16.952h3.179v41.528q-6.134.463-12.259.85V87.737h3.078l-.522,1.169h5.313l-1.7-3.812H713.43l-.739,1.654h-3.519V80.21H710.6l-.514,1.17h5.314l-1.7-3.871h-1.907l-.754,1.712h-1.869V72.772l-1.078.084c-.3.023-.606.037-.907.037s-.609-.014-.912-.037l-1.076-.083v6.448h-1.864l-.753-1.712h-1.907l-1.7,3.871h5.314l-.515-1.17H705.2v6.538h-3.514l-.739-1.654h-1.907l-1.705,3.812h5.314l-.521-1.169H705.2v23.33q-6.409.392-12.814.7V81.33h3.184l-3.358-17.772H671.048V55.814h-9.456v7.744h-3.154l-.153.816L655.09,81.33h3.178v33.553h2V81.33h30.115v32.54l1.048-.05q7.41-.357,14.827-.813l.912-.054v0l1.062-.067q7.13-.45,14.275-.99l.923-.069V68.447h35.156v40.117l1.108-.122q6.948-.758,13.933-1.6l.879-.107V63.445h35.154l0,38.459,1.15-.175q7.82-1.192,15.7-2.49l.81-.133v.01l1.163-.195c4.509-.753,8.862-1.5,13.406-2.312ZM657.5,79.329,660.1,65.557h3.495V57.815h5.454v7.744h21.507l2.6,13.77Zm63.927-12.884h-.768l2.6-13.768h35.5l2.6,13.768H721.431Zm50.308-5,2.6-13.768h4.774V39.933h5.455v7.745h25.269l2.6,13.768Zm56.5,28.785c-.051,0-.1,0-.156.006V84.69l7.176-3.952-.726-1.315-6.45,3.553V76.06l5.271-3.367-.806-1.265-4.465,2.853V68.914l2.71-2.02-.894-1.2-1.816,1.352V62.495h-1.5v7.826l-3.248-1.949-.773,1.288,4.021,2.413v6.255l-6.1-3.7-.778,1.282,6.874,4.168v5.809l-6.319-3.763-.768,1.288,7.087,4.221v2.6c-.051,0-.1,0-.155-.006l-1.08-.086v.176c-4.051-.74-7.177-3.735-7.241-10.519-.016-7.829,4.355-15.8,9.224-20.22C832.2,64,836.577,71.972,836.56,79.8c-.064,6.784-3.191,9.778-7.242,10.519v-.179ZM681.564,107.384H687.9v-9.1h-6.332Zm1.5-7.6h3.329v6.1h-3.329Zm-10.845,7.6h6.333v-9.1H672.22Zm1.5-7.6h3.329v6.1h-3.329Zm-11.038,7.6h6.332v-9.1h-6.332Zm1.5-7.6h3.329v6.1h-3.329Zm17.381-14.451V92.7H687.9V85.333Zm4.828,5.862h-3.33V86.834h3.33Zm-14.173-5.862V92.7h6.331V85.333Zm4.832,5.862H673.72V86.832h3.333Zm-14.369,1.5h6.332V85.333h-6.332Zm1.5-5.865h3.332v4.363l-3.332,0Zm14.394-15.44v6.85h7.2v-6.85l-3.6-2.4Zm5.7,5.352h-4.2v-4.55l2.1-1.4,2.1,1.4Zm-19.769-5.352v6.85h7.2v-6.85l-3.6-2.4Zm5.7,5.352h-4.2V72.195l2.1-1.4,2.1,1.4Zm128.42,20.089h6.795v-9.1h-6.795Zm1.5-7.6h3.79v6.1h-3.79Zm-22.187,7.6h6.795v-9.1h-6.795Zm1.5-7.6h3.791v6.1l-3.791,0Zm19.184-9.148h6.795v-11.3h-6.795Zm1.5-9.8h3.79v8.3h-3.79Zm-11.739,9.8h6.792v-11.3h-6.792Zm1.5-9.8h3.79v8.3h-3.79Zm-11.95,9.8h6.795v-11.3h-6.795Zm1.5-9.8h3.791v8.3h-3.791Zm16.915-16.779V60.36h7.2V53.507l-3.6-2.4Zm5.7,5.354h-4.2V54.312l2.1-1.4,2.1,1.4Zm-21.778-5.353v6.853h7.2V53.508l-3.6-2.4Zm5.7,5.351-4.2,0V54.313l2.1-1.4,2.1,1.4Zm-38.431,42.973h6.794v-9.1h-6.794Zm1.5-7.6h3.794v6.1l-3.794,0Zm-11.589,7.6h6.795v-9.1h-6.795Zm1.5-7.6h3.791v6.1l-3.791,0Zm-12.1,7.6h6.795v-9.1h-6.795Zm1.5-7.6h3.793v6.1h-3.793Zm21.588-20.447h-6.794v11.3h6.794Zm-1.5,9.8h-3.789v-8.3h3.789Zm-10.072-9.8h-6.794v11.3h6.794Zm-1.5,9.8h-3.792v-8.3h3.792Zm8.4-25.077v6.853h7.2V58.508l-3.6-2.4Zm5.7,5.353h-4.2V59.31l2.1-1.4,2.1,1.4Zm-21.778-5.353v6.853h7.2V58.508l-3.6-2.4Zm5.7,5.352h-4.2V59.311l2.1-1.4,2.1,1.4Z" transform="translate(154.32 945.366)" fill="#ff48c8" opacity="0.2"/>
    <path id="Path_355" data-name="Path 355" d="M655.09,94.594l.176.02q6.223,1.105,12.4,2.139V91.859a9.837,9.837,0,0,1-5.523-2.733c-2-2.011-3.222-5.1-3.219-9.324.018-8.665,4.851-17.162,10.239-21.789l.488-.417.488.417c5.386,4.627,10.221,13.124,10.238,21.789,0,4.223-1.221,7.313-3.221,9.324a9.833,9.833,0,0,1-5.521,2.734V97.4q6.87,1.129,13.686,2.173V63.445h-3.186l3.359-17.766h24.928V37.934h9.452v7.743l4.434,0,.153.814,3.2,16.952h-3.18v41.514q5.971.72,11.918,1.373V68.445h-3.187l3.36-17.766h38.813l.155.814,3.2,16.952h-3.179v41.528q6.134.463,12.259.85V87.737H784.73l.522,1.169h-5.313l1.7-3.812h1.908l.739,1.654h3.519V80.21h-1.433l.514,1.17h-5.314l1.7-3.871h1.907l.754,1.712h1.869V72.772l1.078.084c.3.023.606.037.907.037s.609-.014.912-.037l1.076-.083v6.448h1.864l.753-1.712h1.907l1.7,3.871H792.7l.515-1.17h-1.429v6.538H795.3l.739-1.654h1.907l1.705,3.812h-5.314l.521-1.169h-3.072v23.33q6.409.392,12.814.7V81.33h-3.184l3.358-17.772h21.163V55.814h9.456v7.744h3.154l.153.816L841.89,81.33h-3.178v33.553h-2V81.33H806.6v32.54l-1.048-.05q-7.41-.357-14.827-.813l-.912-.054v0l-1.062-.067q-7.13-.45-14.275-.99l-.923-.069V68.447H738.393v40.117l-1.108-.122q-6.948-.758-13.933-1.6l-.879-.107V63.445H687.319l0,38.459-1.15-.175q-7.82-1.192-15.7-2.49l-.81-.133v.01l-1.163-.195c-4.509-.753-8.862-1.5-13.406-2.312ZM839.476,79.329l-2.594-13.772h-3.495V57.815h-5.454v7.744H806.426l-2.6,13.77ZM775.549,66.445h.768l-2.6-13.768h-35.5l-2.6,13.768h39.928Zm-50.308-5-2.6-13.768h-4.774V39.933h-5.455v7.745H687.147l-2.6,13.768Zm-56.5,28.785c.051,0,.1,0,.156.006V84.69l-7.176-3.952.726-1.315,6.45,3.553V76.06l-5.271-3.367.806-1.265,4.465,2.853V68.914l-2.71-2.02.894-1.2,1.816,1.352V62.5h1.5v7.826l3.248-1.949.773,1.288L670.4,72.073v6.255l6.1-3.7.778,1.282L670.4,80.082v5.809l6.319-3.763.768,1.288L670.4,87.637v2.6c.051,0,.1,0,.155-.006l1.08-.086v.176c4.051-.74,7.177-3.735,7.241-10.519.016-7.829-4.355-15.8-9.224-20.22C664.776,64,660.4,71.972,660.42,79.8c.064,6.784,3.191,9.778,7.242,10.519v-.179Zm146.676,17.153h-6.332v-9.1h6.332Zm-1.5-7.6h-3.329v6.1h3.329Zm10.845,7.6h-6.333v-9.1h6.333Zm-1.5-7.6H819.93v6.1h3.329Zm11.038,7.6h-6.332v-9.1H834.3Zm-1.5-7.6h-3.329v6.1H832.8ZM815.414,85.333V92.7h-6.329V85.333ZM810.586,91.2h3.33V86.834h-3.33Zm14.173-5.862V92.7h-6.331V85.333ZM819.927,91.2h3.333V86.832h-3.333ZM834.3,92.7h-6.332V85.333H834.3Zm-1.5-5.865h-3.332V91.2l3.332,0ZM818.4,71.392v6.85h-7.2v-6.85l3.6-2.4Zm-5.7,5.352h4.2v-4.55l-2.1-1.4-2.1,1.4Zm19.769-5.352v6.85h-7.2v-6.85l3.6-2.4Zm-5.7,5.352h4.2V72.2l-2.1-1.4-2.1,1.4ZM698.352,96.833h-6.795v-9.1h6.795Zm-1.5-7.6h-3.79v6.1h3.79Zm22.187,7.6h-6.795v-9.1h6.795Zm-1.5-7.6h-3.791v6.1l3.791,0Zm-19.184-9.148h-6.795v-11.3h6.795Zm-1.5-9.8h-3.79v8.3h3.79Zm11.739,9.8H701.8v-11.3h6.792Zm-1.5-9.8H703.3v8.3h3.79Zm11.95,9.8h-6.795v-11.3h6.795Zm-1.5-9.8h-3.791v8.3h3.791ZM700.621,53.507V60.36h-7.2V53.507l3.6-2.4Zm-5.7,5.354h4.2V54.312l-2.1-1.4-2.1,1.4ZM716.7,53.508v6.853h-7.2V53.508l3.6-2.4ZM711,58.859l4.2,0V54.313l-2.1-1.4-2.1,1.4Zm38.431,42.973h-6.794v-9.1h6.794Zm-1.5-7.6h-3.794v6.1l3.794,0Zm11.589,7.6h-6.795v-9.1h6.795Zm-1.5-7.6h-3.791v6.1l3.791,0Zm12.1,7.6h-6.795v-9.1h6.795Zm-1.5-7.6h-3.793v6.1h3.793ZM747.023,73.785h6.794v11.3h-6.794Zm1.5,9.8h3.789v-8.3h-3.789Zm10.072-9.8h6.794v11.3H758.6Zm1.5,9.8h3.792v-8.3H760.1Zm-8.4-25.077v6.853h-7.2V58.508l3.6-2.4Zm-5.7,5.353h4.2V59.31l-2.1-1.4-2.1,1.4Zm21.778-5.353v6.853h-7.2V58.508l3.6-2.4Zm-5.7,5.352h4.2V59.311l-2.1-1.4-2.1,1.4Z" transform="translate(-650.68 945.366)" fill="#ff48c8" opacity="0.2"/>
    <g id="Group_328" data-name="Group 328" transform="translate(-48.567 602.775)" opacity="0.2">
      <g id="Group_326" data-name="Group 326">
        <g id="Group_204" data-name="Group 204">
          <g id="Group_197" data-name="Group 197">
            <path id="Path_324" data-name="Path 324" d="M777.594,454.975h-2V384.519H747.255v70.456h-2V383.519a1,1,0,0,1,1-1h30.339a1,1,0,0,1,1,1Z" fill="#ff48c8"/>
          </g>
          <g id="Group_198" data-name="Group 198">
            <path id="Path_325" data-name="Path 325" d="M821.517,454.975h-2V432.392H782.178v22.583h-2V431.392a1,1,0,0,1,1-1h39.339a1,1,0,0,1,1,1Z" fill="#ff48c8"/>
          </g>
          <g id="Group_199" data-name="Group 199">
            <path id="Path_326" data-name="Path 326" d="M817.6,431.392h-2v-5.834H786.1v5.834h-2v-6.834a1,1,0,0,1,1-1h31.5a1,1,0,0,1,1,1Z" fill="#ff48c8"/>
          </g>
          <g id="Group_200" data-name="Group 200">
            <path id="Path_327" data-name="Path 327" d="M814.1,424.558h-2v-3.75H801.848v3.75h-2v-4.75a1,1,0,0,1,1-1H813.1a1,1,0,0,1,1,1Z" fill="#ff48c8"/>
          </g>
          <g id="Group_201" data-name="Group 201">
            <path id="Path_328" data-name="Path 328" d="M736.906,454.975h-2V370.936a1,1,0,0,1,1-1h32.748a1,1,0,0,1,1,1v12.583h-2V371.936H736.906Z" fill="#ff48c8"/>
          </g>
          <g id="Group_202" data-name="Group 202">
            <path id="Path_329" data-name="Path 329" d="M714.873,412.955h-2V335.881a1,1,0,0,1,1-1h32.382a1,1,0,0,1,1,1v35.055h-2V336.881H714.873Z" fill="#ff48c8"/>
          </g>
          <g id="Group_203" data-name="Group 203">
            <path id="Path_330" data-name="Path 330" d="M722.064,454.975h-2v-41.02h-18.13v41.02h-2v-42.02a1,1,0,0,1,1-1h20.13a1,1,0,0,1,1,1Z" fill="#ff48c8"/>
          </g>
        </g>
        <g id="Group_205" data-name="Group 205">
          <path id="Path_331" data-name="Path 331" d="M586.017,455.975h-2v-287h-66v124h-2v-125a1,1,0,0,1,1-1h68a1,1,0,0,1,1,1Z" fill="#ff48c8"/>
        </g>
        <g id="Group_206" data-name="Group 206">
          <path id="Path_332" data-name="Path 332" d="M580.007,167.975h-2v-9.5h-53.98v9.5h-2v-10.5a1,1,0,0,1,1-1h55.98a1,1,0,0,1,1,1Z" fill="#ff48c8"/>
        </g>
        <g id="Group_210" data-name="Group 210">
          <g id="Group_207" data-name="Group 207">
            <path id="Path_333" data-name="Path 333" d="M552.09,454.975h-2V328.413h-1.923a1,1,0,0,1-1-1v-7.438h-60.3v7.438a1,1,0,0,1-1,1h-1.923v28.562h-2V327.413a1,1,0,0,1,1-1h1.923v-7.438a1,1,0,0,1,1-1h62.3a1,1,0,0,1,1,1v7.438h1.923a1,1,0,0,1,1,1Z" fill="#ff48c8"/>
          </g>
          <g id="Group_208" data-name="Group 208">
            <path id="Path_334" data-name="Path 334" d="M546.007,318.975h-2v-6h-53.98v6h-2v-7a1,1,0,0,1,1-1h55.98a1,1,0,0,1,1,1Z" fill="#ff48c8"/>
          </g>
          <g id="Group_209" data-name="Group 209">
            <path id="Path_335" data-name="Path 335" d="M541.06,312.475h-2V308.2l-22.043-14.038L494.975,308.2v4.276h-2V307.65a1,1,0,0,1,.463-.843l23.042-14.675a1,1,0,0,1,1.074,0L540.6,306.807a1,1,0,0,1,.463.843Z" fill="#ff48c8"/>
          </g>
        </g>
        <g id="Group_211" data-name="Group 211">
          <path id="Path_336" data-name="Path 336" d="M584.024,456.092,551.017,176.5,535.844,305.032l-1.987-.234,16.167-136.94a1,1,0,0,1,1.986,0l34,288Z" fill="#ff48c8"/>
        </g>
        <g id="Group_212" data-name="Group 212">
          <rect id="Rectangle_1084" data-name="Rectangle 1084" width="2" height="14" transform="translate(550.017 143.725)" fill="#ff48c8"/>
        </g>
        <g id="Group_213" data-name="Group 213">
          <path id="Path_337" data-name="Path 337" d="M551.017,144.725a5.5,5.5,0,1,1,5.5-5.5A5.506,5.506,0,0,1,551.017,144.725Zm0-9a3.5,3.5,0,1,0,3.5,3.5A3.5,3.5,0,0,0,551.017,135.725Z" fill="#ff48c8"/>
        </g>
        <g id="Group_214" data-name="Group 214">
          <rect id="Rectangle_1085" data-name="Rectangle 1085" width="2" height="22.5" transform="translate(550.017 112.225)" fill="#ff48c8"/>
        </g>
        <g id="Group_235" data-name="Group 235">
          <g id="Group_215" data-name="Group 215">
            <rect id="Rectangle_1086" data-name="Rectangle 1086" width="55.98" height="2" transform="translate(489.027 324.475)" fill="#ff48c8"/>
          </g>
          <g id="Group_216" data-name="Group 216">
            <rect id="Rectangle_1087" data-name="Rectangle 1087" width="55.98" height="2" transform="translate(489.027 331.133)" fill="#ff48c8"/>
          </g>
          <g id="Group_217" data-name="Group 217">
            <rect id="Rectangle_1088" data-name="Rectangle 1088" width="55.98" height="2" transform="translate(489.027 337.791)" fill="#ff48c8"/>
          </g>
          <g id="Group_218" data-name="Group 218">
            <rect id="Rectangle_1089" data-name="Rectangle 1089" width="55.98" height="2" transform="translate(489.027 344.449)" fill="#ff48c8"/>
          </g>
          <g id="Group_219" data-name="Group 219">
            <rect id="Rectangle_1090" data-name="Rectangle 1090" width="55.98" height="2" transform="translate(489.027 351.107)" fill="#ff48c8"/>
          </g>
          <g id="Group_220" data-name="Group 220">
            <rect id="Rectangle_1091" data-name="Rectangle 1091" width="49.047" height="2" transform="translate(495.96 357.764)" fill="#ff48c8"/>
          </g>
          <g id="Group_221" data-name="Group 221">
            <rect id="Rectangle_1092" data-name="Rectangle 1092" width="39.021" height="2" transform="translate(505.987 364.422)" fill="#ff48c8"/>
          </g>
          <g id="Group_222" data-name="Group 222">
            <rect id="Rectangle_1093" data-name="Rectangle 1093" width="34.073" height="2" transform="translate(510.935 371.08)" fill="#ff48c8"/>
          </g>
          <g id="Group_223" data-name="Group 223">
            <rect id="Rectangle_1094" data-name="Rectangle 1094" width="30.913" height="2" transform="translate(514.094 377.738)" fill="#ff48c8"/>
          </g>
          <g id="Group_224" data-name="Group 224">
            <rect id="Rectangle_1095" data-name="Rectangle 1095" width="27.99" height="2" transform="translate(517.017 384.396)" fill="#ff48c8"/>
          </g>
          <g id="Group_225" data-name="Group 225">
            <rect id="Rectangle_1096" data-name="Rectangle 1096" width="27.99" height="2" transform="translate(517.017 391.054)" fill="#ff48c8"/>
          </g>
          <g id="Group_226" data-name="Group 226">
            <rect id="Rectangle_1097" data-name="Rectangle 1097" width="27.99" height="2" transform="translate(517.017 397.712)" fill="#ff48c8"/>
          </g>
          <g id="Group_227" data-name="Group 227">
            <rect id="Rectangle_1098" data-name="Rectangle 1098" width="27.99" height="2" transform="translate(517.017 404.37)" fill="#ff48c8"/>
          </g>
          <g id="Group_228" data-name="Group 228">
            <rect id="Rectangle_1099" data-name="Rectangle 1099" width="27.99" height="2" transform="translate(517.017 411.027)" fill="#ff48c8"/>
          </g>
          <g id="Group_229" data-name="Group 229">
            <rect id="Rectangle_1100" data-name="Rectangle 1100" width="27.99" height="2" transform="translate(517.017 417.686)" fill="#ff48c8"/>
          </g>
          <g id="Group_230" data-name="Group 230">
            <rect id="Rectangle_1101" data-name="Rectangle 1101" width="27.99" height="2" transform="translate(517.017 424.343)" fill="#ff48c8"/>
          </g>
          <g id="Group_231" data-name="Group 231">
            <rect id="Rectangle_1102" data-name="Rectangle 1102" width="27.99" height="2" transform="translate(517.017 431.001)" fill="#ff48c8"/>
          </g>
          <g id="Group_232" data-name="Group 232">
            <rect id="Rectangle_1103" data-name="Rectangle 1103" width="27.99" height="2" transform="translate(517.017 437.659)" fill="#ff48c8"/>
          </g>
          <g id="Group_233" data-name="Group 233">
            <rect id="Rectangle_1104" data-name="Rectangle 1104" width="27.99" height="2" transform="translate(517.017 444.317)" fill="#ff48c8"/>
          </g>
          <g id="Group_234" data-name="Group 234">
            <rect id="Rectangle_1105" data-name="Rectangle 1105" width="27.99" height="2" transform="translate(517.017 450.975)" fill="#ff48c8"/>
          </g>
        </g>
        <g id="Group_256" data-name="Group 256">
          <g id="Group_236" data-name="Group 236">
            <rect id="Rectangle_1106" data-name="Rectangle 1106" width="74.98" height="2" transform="translate(355.54 307.83)" fill="#ff48c8"/>
          </g>
          <g id="Group_237" data-name="Group 237">
            <rect id="Rectangle_1107" data-name="Rectangle 1107" width="74.98" height="2" transform="translate(355.54 314.488)" fill="#ff48c8"/>
          </g>
          <g id="Group_238" data-name="Group 238">
            <rect id="Rectangle_1108" data-name="Rectangle 1108" width="74.98" height="2" transform="translate(355.54 321.146)" fill="#ff48c8"/>
          </g>
          <g id="Group_239" data-name="Group 239">
            <rect id="Rectangle_1109" data-name="Rectangle 1109" width="74.98" height="2" transform="translate(355.54 327.804)" fill="#ff48c8"/>
          </g>
          <g id="Group_240" data-name="Group 240">
            <rect id="Rectangle_1110" data-name="Rectangle 1110" width="74.98" height="2" transform="translate(355.54 334.462)" fill="#ff48c8"/>
          </g>
          <g id="Group_241" data-name="Group 241">
            <rect id="Rectangle_1111" data-name="Rectangle 1111" width="74.98" height="2" transform="translate(355.54 341.12)" fill="#ff48c8"/>
          </g>
          <g id="Group_242" data-name="Group 242">
            <rect id="Rectangle_1112" data-name="Rectangle 1112" width="74.98" height="2" transform="translate(355.54 347.777)" fill="#ff48c8"/>
          </g>
          <g id="Group_243" data-name="Group 243">
            <rect id="Rectangle_1113" data-name="Rectangle 1113" width="74.98" height="2" transform="translate(355.54 354.436)" fill="#ff48c8"/>
          </g>
          <g id="Group_244" data-name="Group 244">
            <rect id="Rectangle_1114" data-name="Rectangle 1114" width="74.98" height="2" transform="translate(355.54 361.093)" fill="#ff48c8"/>
          </g>
          <g id="Group_245" data-name="Group 245">
            <rect id="Rectangle_1115" data-name="Rectangle 1115" width="74.98" height="2" transform="translate(355.54 367.751)" fill="#ff48c8"/>
          </g>
          <g id="Group_246" data-name="Group 246">
            <rect id="Rectangle_1116" data-name="Rectangle 1116" width="74.98" height="2" transform="translate(355.54 374.409)" fill="#ff48c8"/>
          </g>
          <g id="Group_247" data-name="Group 247">
            <rect id="Rectangle_1117" data-name="Rectangle 1117" width="74.98" height="2" transform="translate(355.54 381.067)" fill="#ff48c8"/>
          </g>
          <g id="Group_248" data-name="Group 248">
            <rect id="Rectangle_1118" data-name="Rectangle 1118" width="74.98" height="2" transform="translate(355.54 387.725)" fill="#ff48c8"/>
          </g>
          <g id="Group_249" data-name="Group 249">
            <rect id="Rectangle_1119" data-name="Rectangle 1119" width="74.98" height="2" transform="translate(355.54 394.383)" fill="#ff48c8"/>
          </g>
          <g id="Group_250" data-name="Group 250">
            <rect id="Rectangle_1120" data-name="Rectangle 1120" width="74.98" height="2" transform="translate(355.54 401.041)" fill="#ff48c8"/>
          </g>
          <g id="Group_251" data-name="Group 251">
            <rect id="Rectangle_1121" data-name="Rectangle 1121" width="20.884" height="2" transform="translate(355.54 407.699)" fill="#ff48c8"/>
          </g>
          <g id="Group_252" data-name="Group 252">
            <rect id="Rectangle_1122" data-name="Rectangle 1122" width="20.884" height="2" transform="translate(355.54 414.357)" fill="#ff48c8"/>
          </g>
          <g id="Group_253" data-name="Group 253">
            <rect id="Rectangle_1123" data-name="Rectangle 1123" width="16.332" height="2" transform="translate(355.54 421.014)" fill="#ff48c8"/>
          </g>
          <g id="Group_254" data-name="Group 254">
            <rect id="Rectangle_1124" data-name="Rectangle 1124" width="16.332" height="2" transform="translate(355.54 427.672)" fill="#ff48c8"/>
          </g>
          <g id="Group_255" data-name="Group 255">
            <rect id="Rectangle_1125" data-name="Rectangle 1125" width="16.332" height="2" transform="translate(355.54 434.33)" fill="#ff48c8"/>
          </g>
        </g>
        <g id="Group_268" data-name="Group 268">
          <g id="Group_257" data-name="Group 257">
            <rect id="Rectangle_1126" data-name="Rectangle 1126" width="55.98" height="2" transform="translate(454.954 384.396)" fill="#ff48c8"/>
          </g>
          <g id="Group_258" data-name="Group 258">
            <rect id="Rectangle_1127" data-name="Rectangle 1127" width="55.98" height="2" transform="translate(454.954 391.054)" fill="#ff48c8"/>
          </g>
          <g id="Group_259" data-name="Group 259">
            <rect id="Rectangle_1128" data-name="Rectangle 1128" width="55.98" height="2" transform="translate(454.954 397.712)" fill="#ff48c8"/>
          </g>
          <g id="Group_260" data-name="Group 260">
            <rect id="Rectangle_1129" data-name="Rectangle 1129" width="55.98" height="2" transform="translate(454.954 404.37)" fill="#ff48c8"/>
          </g>
          <g id="Group_261" data-name="Group 261">
            <rect id="Rectangle_1130" data-name="Rectangle 1130" width="37.47" height="2" transform="translate(473.464 411.027)" fill="#ff48c8"/>
          </g>
          <g id="Group_262" data-name="Group 262">
            <rect id="Rectangle_1131" data-name="Rectangle 1131" width="32.917" height="2" transform="translate(478.017 417.686)" fill="#ff48c8"/>
          </g>
          <g id="Group_263" data-name="Group 263">
            <rect id="Rectangle_1132" data-name="Rectangle 1132" width="32.917" height="2" transform="translate(478.017 424.343)" fill="#ff48c8"/>
          </g>
          <g id="Group_264" data-name="Group 264">
            <rect id="Rectangle_1133" data-name="Rectangle 1133" width="32.917" height="2" transform="translate(478.017 431.001)" fill="#ff48c8"/>
          </g>
          <g id="Group_265" data-name="Group 265">
            <rect id="Rectangle_1134" data-name="Rectangle 1134" width="32.917" height="2" transform="translate(478.017 437.659)" fill="#ff48c8"/>
          </g>
          <g id="Group_266" data-name="Group 266">
            <rect id="Rectangle_1135" data-name="Rectangle 1135" width="32.917" height="2" transform="translate(478.017 444.317)" fill="#ff48c8"/>
          </g>
          <g id="Group_267" data-name="Group 267">
            <rect id="Rectangle_1136" data-name="Rectangle 1136" width="32.917" height="2" transform="translate(478.017 450.975)" fill="#ff48c8"/>
          </g>
        </g>
        <g id="Group_272" data-name="Group 272">
          <g id="Group_269" data-name="Group 269">
            <path id="Path_338" data-name="Path 338" d="M518.017,454.975h-2V386.413h-1.923a1,1,0,0,1-1-1v-7.438h-60.3v7.438a1,1,0,0,1-1,1h-1.922v21.4h-2v-22.4a1,1,0,0,1,1-1h1.922v-7.438a1,1,0,0,1,1-1h62.3a1,1,0,0,1,1,1v7.438h1.923a1,1,0,0,1,1,1Z" fill="#ff48c8"/>
          </g>
          <g id="Group_270" data-name="Group 270">
            <path id="Path_339" data-name="Path 339" d="M511.935,376.975h-2v-6h-53.98v6h-2v-7a1,1,0,0,1,1-1h55.98a1,1,0,0,1,1,1Z" fill="#ff48c8"/>
          </g>
          <g id="Group_271" data-name="Group 271">
            <path id="Path_340" data-name="Path 340" d="M505.987,370.975H459.9a1,1,0,0,1-1-1V365.15a1,1,0,0,1,.463-.843l12.836-8.175a1,1,0,0,1,.537-.157H493.15a.99.99,0,0,1,.537.157l12.837,8.175a1,1,0,0,1,.463.843v4.825A1,1,0,0,1,505.987,370.975Zm-45.085-2h44.085V365.7l-12.128-7.724H473.03L460.9,365.7Z" fill="#ff48c8"/>
          </g>
        </g>
        <g id="Group_295" data-name="Group 295">
          <g id="Group_273" data-name="Group 273">
            <path id="Path_341" data-name="Path 341" d="M601.538,454.975h-2V335.926a1,1,0,0,1,1-1h1.923v-7.439a1,1,0,0,1,1-1h62.3a1,1,0,0,1,1,1v7.439h1.923a1,1,0,0,1,1,1v41.716h-2V336.926h-1.923a1,1,0,0,1-1-1v-7.439h-60.3v7.439a1,1,0,0,1-1,1h-1.923Z" fill="#ff48c8"/>
          </g>
          <g id="Group_274" data-name="Group 274">
            <path id="Path_342" data-name="Path 342" d="M663.6,327.487h-2v-6h-53.98v6h-2v-7a1,1,0,0,1,1-1H662.6a1,1,0,0,1,1,1Z" fill="#ff48c8"/>
          </g>
          <g id="Group_293" data-name="Group 293">
            <g id="Group_275" data-name="Group 275">
              <rect id="Rectangle_1137" data-name="Rectangle 1137" width="55.98" height="2" transform="translate(606.621 337.791)" fill="#ff48c8"/>
            </g>
            <g id="Group_276" data-name="Group 276">
              <rect id="Rectangle_1138" data-name="Rectangle 1138" width="55.98" height="2" transform="translate(606.621 344.449)" fill="#ff48c8"/>
            </g>
            <g id="Group_277" data-name="Group 277">
              <rect id="Rectangle_1139" data-name="Rectangle 1139" width="55.98" height="2" transform="translate(606.621 351.107)" fill="#ff48c8"/>
            </g>
            <g id="Group_278" data-name="Group 278">
              <rect id="Rectangle_1140" data-name="Rectangle 1140" width="55.98" height="2" transform="translate(606.621 357.764)" fill="#ff48c8"/>
            </g>
            <g id="Group_279" data-name="Group 279">
              <rect id="Rectangle_1141" data-name="Rectangle 1141" width="55.98" height="2" transform="translate(606.621 364.422)" fill="#ff48c8"/>
            </g>
            <g id="Group_280" data-name="Group 280">
              <rect id="Rectangle_1142" data-name="Rectangle 1142" width="55.98" height="2" transform="translate(606.621 371.08)" fill="#ff48c8"/>
            </g>
            <g id="Group_281" data-name="Group 281">
              <rect id="Rectangle_1143" data-name="Rectangle 1143" width="53.646" height="2" transform="translate(606.621 377.738)" fill="#ff48c8"/>
            </g>
            <g id="Group_282" data-name="Group 282">
              <rect id="Rectangle_1144" data-name="Rectangle 1144" width="53.646" height="2" transform="translate(606.621 384.396)" fill="#ff48c8"/>
            </g>
            <g id="Group_283" data-name="Group 283">
              <rect id="Rectangle_1145" data-name="Rectangle 1145" width="53.646" height="2" transform="translate(606.621 391.054)" fill="#ff48c8"/>
            </g>
            <g id="Group_284" data-name="Group 284">
              <rect id="Rectangle_1146" data-name="Rectangle 1146" width="45.813" height="2" transform="translate(606.621 397.712)" fill="#ff48c8"/>
            </g>
            <g id="Group_285" data-name="Group 285">
              <rect id="Rectangle_1147" data-name="Rectangle 1147" width="45.813" height="2" transform="translate(606.621 404.37)" fill="#ff48c8"/>
            </g>
            <g id="Group_286" data-name="Group 286">
              <rect id="Rectangle_1148" data-name="Rectangle 1148" width="45.813" height="2" transform="translate(606.621 411.027)" fill="#ff48c8"/>
            </g>
            <g id="Group_287" data-name="Group 287">
              <rect id="Rectangle_1149" data-name="Rectangle 1149" width="37.896" height="2" transform="translate(606.621 417.686)" fill="#ff48c8"/>
            </g>
            <g id="Group_288" data-name="Group 288">
              <rect id="Rectangle_1150" data-name="Rectangle 1150" width="37.896" height="2" transform="translate(606.621 424.343)" fill="#ff48c8"/>
            </g>
            <g id="Group_289" data-name="Group 289">
              <rect id="Rectangle_1151" data-name="Rectangle 1151" width="37.896" height="2" transform="translate(606.621 431.001)" fill="#ff48c8"/>
            </g>
            <g id="Group_290" data-name="Group 290">
              <rect id="Rectangle_1152" data-name="Rectangle 1152" width="29.813" height="2" transform="translate(606.621 437.659)" fill="#ff48c8"/>
            </g>
            <g id="Group_291" data-name="Group 291">
              <rect id="Rectangle_1153" data-name="Rectangle 1153" width="29.813" height="2" transform="translate(606.621 444.317)" fill="#ff48c8"/>
            </g>
            <g id="Group_292" data-name="Group 292">
              <rect id="Rectangle_1154" data-name="Rectangle 1154" width="29.813" height="2" transform="translate(606.621 450.975)" fill="#ff48c8"/>
            </g>
          </g>
          <g id="Group_294" data-name="Group 294">
            <path id="Path_343" data-name="Path 343" d="M658.716,321.487h-48.21a1,1,0,0,1-.969-1.246,25.869,25.869,0,0,1,50.148,0,1,1,0,0,1-.969,1.246Zm-46.888-2h45.566a23.869,23.869,0,0,0-45.566,0Z" fill="#ff48c8"/>
          </g>
        </g>
        <g id="Group_309" data-name="Group 309">
          <g id="Group_307" data-name="Group 307">
            <g id="Group_296" data-name="Group 296">
              <rect id="Rectangle_1155" data-name="Rectangle 1155" width="31.99" height="2" transform="translate(664.684 384.396)" fill="#ff48c8"/>
            </g>
            <g id="Group_297" data-name="Group 297">
              <rect id="Rectangle_1156" data-name="Rectangle 1156" width="31.99" height="2" transform="translate(664.684 391.054)" fill="#ff48c8"/>
            </g>
            <g id="Group_298" data-name="Group 298">
              <rect id="Rectangle_1157" data-name="Rectangle 1157" width="31.99" height="2" transform="translate(664.684 397.712)" fill="#ff48c8"/>
            </g>
            <g id="Group_299" data-name="Group 299">
              <rect id="Rectangle_1158" data-name="Rectangle 1158" width="39.74" height="2" transform="translate(656.934 404.37)" fill="#ff48c8"/>
            </g>
            <g id="Group_300" data-name="Group 300">
              <rect id="Rectangle_1159" data-name="Rectangle 1159" width="39.74" height="2" transform="translate(656.934 411.027)" fill="#ff48c8"/>
            </g>
            <g id="Group_301" data-name="Group 301">
              <rect id="Rectangle_1160" data-name="Rectangle 1160" width="39.74" height="2" transform="translate(656.934 417.686)" fill="#ff48c8"/>
            </g>
            <g id="Group_302" data-name="Group 302">
              <rect id="Rectangle_1161" data-name="Rectangle 1161" width="47.24" height="2" transform="translate(649.434 424.343)" fill="#ff48c8"/>
            </g>
            <g id="Group_303" data-name="Group 303">
              <rect id="Rectangle_1162" data-name="Rectangle 1162" width="47.24" height="2" transform="translate(649.434 431.001)" fill="#ff48c8"/>
            </g>
            <g id="Group_304" data-name="Group 304">
              <rect id="Rectangle_1163" data-name="Rectangle 1163" width="47.24" height="2" transform="translate(649.434 437.659)" fill="#ff48c8"/>
            </g>
            <g id="Group_305" data-name="Group 305">
              <rect id="Rectangle_1164" data-name="Rectangle 1164" width="55.24" height="2" transform="translate(641.434 444.317)" fill="#ff48c8"/>
            </g>
            <g id="Group_306" data-name="Group 306">
              <rect id="Rectangle_1165" data-name="Rectangle 1165" width="55.24" height="2" transform="translate(641.434 450.975)" fill="#ff48c8"/>
            </g>
          </g>
          <g id="Group_308" data-name="Group 308">
            <path id="Path_344" data-name="Path 344" d="M701.934,454.975h-2V378.642h-38.5v18.333a1,1,0,0,1-1,1h-7v18.333a1,1,0,0,1-1,1h-7v18.334a1,1,0,0,1-1,1h-7v18.333h-2V435.642a1,1,0,0,1,1-1h7V416.308a1,1,0,0,1,1-1h7V396.975a1,1,0,0,1,1-1h7V377.642a1,1,0,0,1,1-1h40.5a1,1,0,0,1,1,1Z" fill="#ff48c8"/>
          </g>
        </g>
        <g id="Group_318" data-name="Group 318">
          <g id="Group_315" data-name="Group 315">
            <g id="Group_310" data-name="Group 310">
              <rect id="Rectangle_1166" data-name="Rectangle 1166" width="97.041" height="2" transform="translate(376.424 422.225)" fill="#ff48c8"/>
            </g>
            <g id="Group_311" data-name="Group 311">
              <rect id="Rectangle_1167" data-name="Rectangle 1167" width="97.041" height="2" transform="translate(376.424 428.883)" fill="#ff48c8"/>
            </g>
            <g id="Group_312" data-name="Group 312">
              <rect id="Rectangle_1168" data-name="Rectangle 1168" width="97.041" height="2" transform="translate(376.424 435.541)" fill="#ff48c8"/>
            </g>
            <g id="Group_313" data-name="Group 313">
              <rect id="Rectangle_1169" data-name="Rectangle 1169" width="97.041" height="2" transform="translate(376.424 442.199)" fill="#ff48c8"/>
            </g>
            <g id="Group_314" data-name="Group 314">
              <rect id="Rectangle_1170" data-name="Rectangle 1170" width="97.041" height="2" transform="translate(376.424 448.857)" fill="#ff48c8"/>
            </g>
          </g>
          <g id="Group_316" data-name="Group 316">
            <path id="Path_345" data-name="Path 345" d="M479.017,454.975h-2V417.247h-3.553a1,1,0,0,1-1-1v-7.439h-95.04v7.439a1,1,0,0,1-1,1h-3.552v37.728h-2V416.247a1,1,0,0,1,1-1h3.552v-7.439a1,1,0,0,1,1-1h97.04a1,1,0,0,1,1,1v7.439h3.553a1,1,0,0,1,1,1Z" fill="#ff48c8"/>
          </g>
          <g id="Group_317" data-name="Group 317">
            <rect id="Rectangle_1171" data-name="Rectangle 1171" width="97.041" height="2" transform="translate(376.424 415.247)" fill="#ff48c8"/>
          </g>
        </g>
        <g id="Group_319" data-name="Group 319">
          <path id="Path_346" data-name="Path 346" d="M350.369,454.975h-2V301.737a1,1,0,0,1,1-1h87.323a1,1,0,0,1,1,1V407.808h-2V302.737H350.369Z" fill="#ff48c8"/>
        </g>
        <g id="Group_320" data-name="Group 320">
          <path id="Path_347" data-name="Path 347" d="M342.692,454.975h-2v-139.5a1,1,0,0,1,1-1h7.677v2h-6.677Z" fill="#ff48c8"/>
        </g>
        <g id="Group_325" data-name="Group 325">
          <g id="Group_321" data-name="Group 321">
            <path id="Path_348" data-name="Path 348" d="M271.048,454.975h-2V431.763H244.083v23.212h-2V430.763a1,1,0,0,1,1-1h26.965a1,1,0,0,1,1,1Z" fill="#ff48c8"/>
          </g>
          <g id="Group_322" data-name="Group 322">
            <path id="Path_349" data-name="Path 349" d="M313.971,454.975h-2V406.6H271.048v12.651a1,1,0,0,1-1,1H257.566v10.516h-2V419.247a1,1,0,0,1,1-1h12.482V405.6a1,1,0,0,1,1-1h42.923a1,1,0,0,1,1,1Z" fill="#ff48c8"/>
          </g>
          <g id="Group_323" data-name="Group 323">
            <path id="Path_350" data-name="Path 350" d="M329.471,430.286h-2V368.8L304.3,384.058V405.6h-2V383.519a1,1,0,0,1,.45-.835l25.167-16.572a1,1,0,0,1,1.55.835Z" fill="#ff48c8"/>
          </g>
          <g id="Group_324" data-name="Group 324">
            <path id="Path_351" data-name="Path 351" d="M322.292,454.975h-2V430.286a1,1,0,0,1,1-1h20.4v2h-19.4Z" fill="#ff48c8"/>
          </g>
        </g>
      </g>
      <g id="Group_327" data-name="Group 327" transform="translate(36.111 0.443)">
        <rect id="Rectangle_1172" data-name="Rectangle 1172" width="622.356" height="2.032" transform="translate(202.567 454.975)" fill="#ff48c8"/>
      </g>
    </g>
  </g>
</svg>
